<svg id="visual" viewBox="0 0 960 540" width="960" height="540" xmlns="http://www.w3.org/2000/svg" xmlns:xlink="http://www.w3.org/1999/xlink" version="1.1"><rect x="0" y="0" width="960" height="540" fill="#fea31d"></rect><path d="M0 317L22.8 323.2C45.7 329.3 91.3 341.7 137 347.7C182.7 353.7 228.3 353.3 274 357.7C319.7 362 365.3 371 411.2 370C457 369 503 358 548.8 350.8C594.7 343.7 640.3 340.3 686 348.8C731.7 357.3 777.3 377.7 823 381.3C868.7 385 914.3 372 937.2 365.5L960 359L960 541L937.2 541C914.3 541 868.7 541 823 541C777.3 541 731.7 541 686 541C640.3 541 594.7 541 548.8 541C503 541 457 541 411.2 541C365.3 541 319.7 541 274 541C228.3 541 182.7 541 137 541C91.3 541 45.7 541 22.8 541L0 541Z" fill="#fa7268"></path><path d="M0 395L22.8 395.7C45.7 396.3 91.3 397.7 137 394.5C182.7 391.3 228.3 383.7 274 382.2C319.7 380.7 365.3 385.3 411.2 393.2C457 401 503 412 548.8 413.2C594.7 414.3 640.3 405.7 686 402.8C731.7 400 777.3 403 823 407.3C868.7 411.7 914.3 417.3 937.2 420.2L960 423L960 541L937.2 541C914.3 541 868.7 541 823 541C777.3 541 731.7 541 686 541C640.3 541 594.7 541 548.8 541C503 541 457 541 411.2 541C365.3 541 319.7 541 274 541C228.3 541 182.7 541 137 541C91.3 541 45.7 541 22.8 541L0 541Z" fill="#ef5f67"></path><path d="M0 460L22.8 458.7C45.7 457.3 91.3 454.7 137 447.7C182.7 440.7 228.3 429.3 274 421.7C319.7 414 365.3 410 411.2 407.3C457 404.7 503 403.3 548.8 408.5C594.7 413.7 640.3 425.3 686 426.5C731.7 427.7 777.3 418.3 823 418.2C868.7 418 914.3 427 937.2 431.5L960 436L960 541L937.2 541C914.3 541 868.7 541 823 541C777.3 541 731.7 541 686 541C640.3 541 594.7 541 548.8 541C503 541 457 541 411.2 541C365.3 541 319.7 541 274 541C228.3 541 182.7 541 137 541C91.3 541 45.7 541 22.8 541L0 541Z" fill="#e34c67"></path><path d="M0 462L22.8 460.2C45.7 458.3 91.3 454.7 137 450.2C182.7 445.7 228.3 440.3 274 439.2C319.7 438 365.3 441 411.2 444.7C457 448.3 503 452.7 548.8 457.2C594.7 461.7 640.3 466.3 686 463.5C731.7 460.7 777.3 450.3 823 449.2C868.7 448 914.3 456 937.2 460L960 464L960 541L937.2 541C914.3 541 868.7 541 823 541C777.3 541 731.7 541 686 541C640.3 541 594.7 541 548.8 541C503 541 457 541 411.2 541C365.3 541 319.7 541 274 541C228.3 541 182.7 541 137 541C91.3 541 45.7 541 22.8 541L0 541Z" fill="#d53867"></path><path d="M0 509L22.8 506.3C45.7 503.7 91.3 498.3 137 496.7C182.7 495 228.3 497 274 500.5C319.7 504 365.3 509 411.2 508.8C457 508.7 503 503.3 548.8 498.2C594.7 493 640.3 488 686 485.7C731.7 483.3 777.3 483.7 823 484.8C868.7 486 914.3 488 937.2 489L960 490L960 541L937.2 541C914.3 541 868.7 541 823 541C777.3 541 731.7 541 686 541C640.3 541 594.7 541 548.8 541C503 541 457 541 411.2 541C365.3 541 319.7 541 274 541C228.3 541 182.7 541 137 541C91.3 541 45.7 541 22.8 541L0 541Z" fill="#c62368"></path></svg>